<?xml version="1.0" encoding="UTF-8" standalone="no"?>
<!DOCTYPE svg PUBLIC "-//W3C//DTD SVG 1.1//EN" "http://www.w3.org/Graphics/SVG/1.1/DTD/svg11.dtd">
<svg viewBox="0 0 256 256" height="14.0pt" width="14.0pt" xmlns="http://www.w3.org/2000/svg" version="1.1">
<path d="M 0.00 0.00 L 256.00 0.00 L 256.00 256.00 L 0.00 256.00 L 0.00 0.00 Z" fill="#E4418B" />
<path d="M 204.35 69.21 C 203.77 73.67 203.16 78.13 202.56 82.58 C 196.71 80.63 189.33 79.77 184.62 84.62 C 179.42 90.19 179.57 99.23 179.60 106.34 C 185.65 106.36 191.69 106.34 197.74 106.35 C 197.76 110.70 197.76 115.04 197.75 119.39 C 191.75 119.42 185.76 119.39 179.77 119.41 C 179.74 142.60 179.76 165.80 179.75 188.99 C 173.95 189.01 168.15 189.01 162.35 188.99 C 162.35 165.80 162.35 142.60 162.34 119.41 C 158.65 119.41 154.95 119.39 151.25 119.39 C 151.24 115.05 151.24 110.70 151.26 106.35 C 154.94 106.36 158.63 106.34 162.32 106.34 C 162.39 97.78 162.65 89.48 166.65 81.68 C 169.40 76.21 173.97 71.97 179.60 69.55 C 187.52 66.20 196.29 66.45 204.35 69.21 Z" fill="#ffffff" />
<path d="M 56.01 74.10 C 61.80 74.09 67.60 74.09 73.40 74.10 C 73.42 89.90 73.38 105.70 73.41 121.50 C 89.01 121.50 104.60 121.51 120.19 121.49 C 120.22 105.69 120.19 89.90 120.20 74.10 C 126.00 74.09 131.80 74.09 137.60 74.11 C 137.60 112.40 137.60 150.69 137.60 188.99 C 131.80 189.01 126.00 189.01 120.20 188.99 C 120.19 171.60 120.22 154.20 120.19 136.81 C 104.60 136.79 89.00 136.79 73.41 136.81 C 73.38 154.20 73.41 171.60 73.40 188.99 C 67.60 189.01 61.80 189.00 56.00 189.00 C 56.00 150.70 55.99 112.40 56.01 74.10 Z" fill="#ffffff" /></svg>
